ffmpeg started on 2025-06-07 at 16:43:30
Report written to "D:\Convert\FFMetrics\reports\psnr_report-6.txt"
Log level: 32
Command line:
ffmpeg -hide_banner -nostdin -i "G:\\\xc0\xed\xe8\xec\xe5\\\xce\xed\xe3\xee\xe8\xed\xe3\xe8\\!_36_\xce\xf1\xe5\xed\xfc_2024\\DreamCast\\\xd6\xe8\xea\xeb \xe8\xf1\xf2\xee\xf0\xe8\xe9 - \xcc\xe5\xe6\xf1\xe5\xe7\xee\xed\xfc\xe5 \xe8 \xf1\xe5\xe7\xee\xed \xec\xee\xed\xf1\xf2\xf0\xee\xe2\\DC_Monogatari_Series_Off_and_Monster_Season_08_Telegram_HEVC.mkv" -i "G:\\\xc0\xed\xe8\xec\xe5\\\xce\xed\xe3\xee\xe8\xed\xe3\xe8\\!_36_\xce\xf1\xe5\xed\xfc_2024\\DreamCast\\\xd6\xe8\xea\xeb \xe8\xf1\xf2\xee\xf0\xe8\xe9 - \xcc\xe5\xe6\xf1\xe5\xe7\xee\xed\xfc\xe5 \xe8 \xf1\xe5\xe7\xee\xed \xec\xee\xed\xf1\xf2\xf0\xee\xe2\\DC_Monogatari_Series_Off_and_Monster_Season_08_Telegram.mp4" -lavfi "[0:v]settb=AVTB,setpts=PTS-STARTPTS,format=pix_fmts=yuv420p10,fps=24000/1001,scale=1920:1080:flags=bicubic[main];[1:v]settb=AVTB,setpts=PTS-STARTPTS,format=pix_fmts=yuv420p,fps=24000/1001,scale=1920:1080:flags=bicubic[ref];[main][ref]psnr=eof_action=endall:stats_file='D\\:/Convert/FFMetrics/logs/psnr_logfile-6.txt'" -f null -
Input #0, matroska,webm, from 'G:\Аниме\Онгоинги\!_36_Осень_2024\DreamCast\Цикл историй - Межсезонье и сезон монстров\DC_Monogatari_Series_Off_and_Monster_Season_08_Telegram_HEVC.mkv':
  Metadata:
    COMPATIBLE_BRANDS: isomiso2avc1mp41
    MAJOR_BRAND     : isom
    MINOR_VERSION   : 512
    ENCODER         : Lavf61.7.100
  Duration: 00:23:41.70, start: -0.021000, bitrate: 805 kb/s
  Stream #0:0: Video: hevc (Main 10), yuv420p10le(tv, bt709, progressive), 1920x1080 [SAR 1:1 DAR 16:9], 23.98 fps, 23.98 tbr, 1k tbn (default)
      Metadata:
        HANDLER_NAME    : VideoHandler
        VENDOR_ID       : [0][0][0][0]
        ENCODER         : Lavc61.19.100 libx265
        BPS             : 608008
        DURATION        : 00:23:41.503708333
        NUMBER_OF_FRAMES: 34082
        NUMBER_OF_BYTES : 108035747
        _STATISTICS_WRITING_APP: mkvpropedit v66.0.0 ('Josie') 64-bit
        _STATISTICS_WRITING_DATE_UTC: 2025-06-05 11:33:59
        _STATISTICS_TAGS: BPS DURATION NUMBER_OF_FRAMES NUMBER_OF_BYTES
  Stream #0:1: Audio: aac (LC), 48000 Hz, stereo, fltp (default)
      Metadata:
        HANDLER_NAME    : SoundHandler
        VENDOR_ID       : [0][0][0][0]
        ENCODER         : Lavc61.19.100 aac
        BPS             : 194015
        DURATION        : 00:23:41.696000000
        NUMBER_OF_FRAMES: 66643
        NUMBER_OF_BYTES : 34478871
        _STATISTICS_WRITING_APP: mkvpropedit v66.0.0 ('Josie') 64-bit
        _STATISTICS_WRITING_DATE_UTC: 2025-06-05 11:33:59
        _STATISTICS_TAGS: BPS DURATION NUMBER_OF_FRAMES NUMBER_OF_BYTES
Input #1, mov,mp4,m4a,3gp,3g2,mj2, from 'G:\Аниме\Онгоинги\!_36_Осень_2024\DreamCast\Цикл историй - Межсезонье и сезон монстров\DC_Monogatari_Series_Off_and_Monster_Season_08_Telegram.mp4':
  Metadata:
    major_brand     : isom
    minor_version   : 512
    compatible_brands: isomiso2avc1mp41
    encoder         : Lavf61.1.100
  Duration: 00:23:41.64, start: 0.000000, bitrate: 3097 kb/s
  Stream #1:0[0x1](und): Video: h264 (High) (avc1 / 0x31637661), yuv420p(tv, bt709, progressive), 1920x1080 [SAR 1:1 DAR 16:9], 2949 kb/s, 23.98 fps, 23.98 tbr, 24k tbn (default)
      Metadata:
        handler_name    : VideoHandler
        vendor_id       : [0][0][0][0]
        encoder         : Lavc61.3.100 h264_qsv
  Stream #1:1[0x2](und): Audio: aac (HE-AACv2) (mp4a / 0x6134706D), 48000 Hz, stereo, fltp, 144 kb/s (default)
      Metadata:
        handler_name    : SoundHandler
        vendor_id       : [0][0][0][0]
Stream mapping:
  Stream #0:0 (hevc) -> settb:default
  Stream #1:0 (h264) -> settb:default
  psnr:default -> Stream #0:0 (wrapped_avframe)
  Stream #0:1 -> #0:1 (aac (native) -> pcm_s16le (native))
Output #0, null, to 'pipe:':
  Metadata:
    COMPATIBLE_BRANDS: isomiso2avc1mp41
    MAJOR_BRAND     : isom
    MINOR_VERSION   : 512
    encoder         : Lavf61.7.100
  Stream #0:0: Video: wrapped_avframe, yuv420p10le(tv, bt709, progressive), 1920x1080 [SAR 1:1 DAR 16:9], q=2-31, 200 kb/s, 23.98 fps, 23.98 tbn
      Metadata:
        encoder         : Lavc61.19.100 wrapped_avframe
  Stream #0:1: Audio: pcm_s16le, 48000 Hz, stereo, s16, 1536 kb/s (default)
      Metadata:
        HANDLER_NAME    : SoundHandler
        VENDOR_ID       : [0][0][0][0]
        _STATISTICS_TAGS: BPS DURATION NUMBER_OF_FRAMES NUMBER_OF_BYTES
        BPS             : 194015
        DURATION        : 00:23:41.696000000
        NUMBER_OF_FRAMES: 66643
        NUMBER_OF_BYTES : 34478871
        _STATISTICS_WRITING_APP: mkvpropedit v66.0.0 ('Josie') 64-bit
        _STATISTICS_WRITING_DATE_UTC: 2025-06-05 11:33:59
        encoder         : Lavc61.19.100 pcm_s16le
frame=  175 fps=0.0 q=-0.0 size=N/A time=00:00:07.29 bitrate=N/A speed=  14x    frame=  426 fps=414 q=-0.0 size=N/A time=00:00:17.76 bitrate=N/A speed=17.3x    frame=  684 fps=441 q=-0.0 size=N/A time=00:00:28.52 bitrate=N/A speed=18.4x    frame=  859 fps=416 q=-0.0 size=N/A time=00:00:35.82 bitrate=N/A speed=17.4x    frame= 1119 fps=433 q=-0.0 size=N/A time=00:00:46.67 bitrate=N/A speed=18.1x    frame= 1375 fps=445 q=-0.0 size=N/A time=00:00:57.34 bitrate=N/A speed=18.5x    frame= 1641 fps=454 q=-0.0 size=N/A time=00:01:08.44 bitrate=N/A speed=18.9x    frame= 1901 fps=461 q=-0.0 size=N/A time=00:01:19.28 bitrate=N/A speed=19.2x    frame= 2122 fps=457 q=-0.0 size=N/A time=00:01:28.50 bitrate=N/A speed=  19x    frame= 2375 fps=461 q=-0.0 size=N/A time=00:01:39.05 bitrate=N/A speed=19.2x    frame= 2658 fps=468 q=-0.0 size=N/A time=00:01:50.86 bitrate=N/A speed=19.5x    frame= 2913 fps=471 q=-0.0 size=N/A time=00:02:01.49 bitrate=N/A speed=19.6x    frame= 3184 fps=475 q=-0.0 size=N/A time=00:02:12.79 bitrate=N/A speed=19.8x    frame= 3453 fps=478 q=-0.0 size=N/A time=00:02:24.01 bitrate=N/A speed=19.9x    frame= 3709 fps=479 q=-0.0 size=N/A time=00:02:34.69 bitrate=N/A speed=  20x    frame= 3954 fps=479 q=-0.0 size=N/A time=00:02:44.91 bitrate=N/A speed=  20x    frame= 4189 fps=478 q=-0.0 size=N/A time=00:02:54.71 bitrate=N/A speed=19.9x    frame= 4454 fps=480 q=-0.0 size=N/A time=00:03:05.76 bitrate=N/A speed=  20x    frame= 4733 fps=483 q=-0.0 size=N/A time=00:03:17.40 bitrate=N/A speed=20.1x    frame= 4984 fps=483 q=-0.0 size=N/A time=00:03:27.87 bitrate=N/A speed=20.1x    frame= 5233 fps=483 q=-0.0 size=N/A time=00:03:38.25 bitrate=N/A speed=20.2x    frame= 5465 fps=481 q=-0.0 size=N/A time=00:03:47.93 bitrate=N/A speed=20.1x    frame= 5696 fps=480 q=-0.0 size=N/A time=00:03:57.57 bitrate=N/A speed=  20x    frame= 5963 fps=481 q=-0.0 size=N/A time=00:04:08.70 bitrate=N/A speed=20.1x    frame= 6219 fps=482 q=-0.0 size=N/A time=00:04:19.38 bitrate=N/A speed=20.1x    frame= 6464 fps=482 q=-0.0 size=N/A time=00:04:29.60 bitrate=N/A speed=20.1x    frame= 6751 fps=484 q=-0.0 size=N/A time=00:04:41.57 bitrate=N/A speed=20.2x    frame= 7032 fps=487 q=-0.0 size=N/A time=00:04:53.29 bitrate=N/A speed=20.3x    frame= 7308 fps=488 q=-0.0 size=N/A time=00:05:04.80 bitrate=N/A speed=20.4x    frame= 7551 fps=488 q=-0.0 size=N/A time=00:05:14.93 bitrate=N/A speed=20.4x    frame= 7781 fps=487 q=-0.0 size=N/A time=00:05:24.53 bitrate=N/A speed=20.3x    frame= 8041 fps=487 q=-0.0 size=N/A time=00:05:35.37 bitrate=N/A speed=20.3x    frame= 8324 fps=489 q=-0.0 size=N/A time=00:05:47.18 bitrate=N/A speed=20.4x    frame= 8624 fps=492 q=-0.0 size=N/A time=00:05:59.69 bitrate=N/A speed=20.5x    frame= 8906 fps=493 q=-0.0 size=N/A time=00:06:11.45 bitrate=N/A speed=20.6x    frame= 9195 fps=495 q=-0.0 size=N/A time=00:06:23.50 bitrate=N/A speed=20.6x    frame= 9459 fps=496 q=-0.0 size=N/A time=00:06:34.51 bitrate=N/A speed=20.7x    frame= 9707 fps=495 q=-0.0 size=N/A time=00:06:44.90 bitrate=N/A speed=20.7x    frame= 9983 fps=496 q=-0.0 size=N/A time=00:06:56.37 bitrate=N/A speed=20.7x    frame=10232 fps=496 q=-0.0 size=N/A time=00:07:06.75 bitrate=N/A speed=20.7x    frame=10486 fps=496 q=-0.0 size=N/A time=00:07:17.35 bitrate=N/A speed=20.7x    frame=10755 fps=496 q=-0.0 size=N/A time=00:07:28.57 bitrate=N/A speed=20.7x    frame=11033 fps=497 q=-0.0 size=N/A time=00:07:40.16 bitrate=N/A speed=20.7x    frame=11288 fps=498 q=-0.0 size=N/A time=00:07:50.80 bitrate=N/A speed=20.8x    frame=11534 fps=497 q=-0.0 size=N/A time=00:08:01.06 bitrate=N/A speed=20.7x    frame=11802 fps=498 q=-0.0 size=N/A time=00:08:12.24 bitrate=N/A speed=20.8x    frame=12010 fps=495 q=-0.0 size=N/A time=00:08:20.91 bitrate=N/A speed=20.7x    frame=12235 fps=494 q=-0.0 size=N/A time=00:08:30.30 bitrate=N/A speed=20.6x    frame=12513 fps=495 q=-0.0 size=N/A time=00:08:41.89 bitrate=N/A speed=20.7x    frame=12788 fps=496 q=-0.0 size=N/A time=00:08:53.36 bitrate=N/A speed=20.7x    frame=13062 fps=497 q=-0.0 size=N/A time=00:09:04.79 bitrate=N/A speed=20.7x    frame=13331 fps=497 q=-0.0 size=N/A time=00:09:16.01 bitrate=N/A speed=20.7x    frame=13563 fps=496 q=-0.0 size=N/A time=00:09:25.69 bitrate=N/A speed=20.7x    frame=13828 fps=496 q=-0.0 size=N/A time=00:09:36.74 bitrate=N/A speed=20.7x    frame=14097 fps=497 q=-0.0 size=N/A time=00:09:47.96 bitrate=N/A speed=20.7x    frame=14364 fps=497 q=-0.0 size=N/A time=00:09:59.09 bitrate=N/A speed=20.7x    frame=14602 fps=497 q=-0.0 size=N/A time=00:10:09.02 bitrate=N/A speed=20.7x    frame=14849 fps=496 q=-0.0 size=N/A time=00:10:19.32 bitrate=N/A speed=20.7x    frame=15115 fps=497 q=-0.0 size=N/A time=00:10:30.42 bitrate=N/A speed=20.7x    frame=15393 fps=497 q=-0.0 size=N/A time=00:10:42.01 bitrate=N/A speed=20.7x    frame=15630 fps=497 q=-0.0 size=N/A time=00:10:51.90 bitrate=N/A speed=20.7x    frame=15913 fps=498 q=-0.0 size=N/A time=00:11:03.70 bitrate=N/A speed=20.8x    frame=16185 fps=498 q=-0.0 size=N/A time=00:11:15.04 bitrate=N/A speed=20.8x    frame=16467 fps=499 q=-0.0 size=N/A time=00:11:26.81 bitrate=N/A speed=20.8x    frame=16749 fps=500 q=-0.0 size=N/A time=00:11:38.57 bitrate=N/A speed=20.8x    frame=16991 fps=499 q=-0.0 size=N/A time=00:11:48.66 bitrate=N/A speed=20.8x    frame=17275 fps=500 q=-0.0 size=N/A time=00:12:00.51 bitrate=N/A speed=20.8x    frame=17546 fps=500 q=-0.0 size=N/A time=00:12:11.81 bitrate=N/A speed=20.9x    frame=17829 fps=501 q=-0.0 size=N/A time=00:12:23.61 bitrate=N/A speed=20.9x    frame=18101 fps=501 q=-0.0 size=N/A time=00:12:34.96 bitrate=N/A speed=20.9x    frame=18377 fps=502 q=-0.0 size=N/A time=00:12:46.47 bitrate=N/A speed=20.9x    frame=18653 fps=502 q=-0.0 size=N/A time=00:12:57.98 bitrate=N/A speed=  21x    frame=18915 fps=502 q=-0.0 size=N/A time=00:13:08.91 bitrate=N/A speed=  21x    frame=19197 fps=503 q=-0.0 size=N/A time=00:13:20.67 bitrate=N/A speed=  21x    frame=19456 fps=503 q=-0.0 size=N/A time=00:13:31.47 bitrate=N/A speed=  21x    frame=19727 fps=503 q=-0.0 size=N/A time=00:13:42.78 bitrate=N/A speed=  21x    frame=20012 fps=504 q=-0.0 size=N/A time=00:13:54.66 bitrate=N/A speed=  21x    frame=20314 fps=505 q=-0.0 size=N/A time=00:14:07.26 bitrate=N/A speed=21.1x    frame=20597 fps=505 q=-0.0 size=N/A time=00:14:19.06 bitrate=N/A speed=21.1x    frame=20856 fps=505 q=-0.0 size=N/A time=00:14:29.86 bitrate=N/A speed=21.1x    frame=21144 fps=506 q=-0.0 size=N/A time=00:14:41.88 bitrate=N/A speed=21.1x    frame=21440 fps=507 q=-0.0 size=N/A time=00:14:54.22 bitrate=N/A speed=21.1x    frame=21720 fps=507 q=-0.0 size=N/A time=00:15:05.90 bitrate=N/A speed=21.2x    frame=22007 fps=508 q=-0.0 size=N/A time=00:15:17.87 bitrate=N/A speed=21.2x    frame=22289 fps=508 q=-0.0 size=N/A time=00:15:29.63 bitrate=N/A speed=21.2x    frame=22588 fps=509 q=-0.0 size=N/A time=00:15:42.10 bitrate=N/A speed=21.2x    frame=22814 fps=508 q=-0.0 size=N/A time=00:15:51.53 bitrate=N/A speed=21.2x    frame=23023 fps=507 q=-0.0 size=N/A time=00:16:00.25 bitrate=N/A speed=21.2x    frame=23288 fps=507 q=-0.0 size=N/A time=00:16:11.30 bitrate=N/A speed=21.2x    frame=23512 fps=506 q=-0.0 size=N/A time=00:16:20.64 bitrate=N/A speed=21.1x    frame=23687 fps=505 q=-0.0 size=N/A time=00:16:27.94 bitrate=N/A speed=  21x    frame=23911 fps=504 q=-0.0 size=N/A time=00:16:37.28 bitrate=N/A speed=  21x    frame=24171 fps=504 q=-0.0 size=N/A time=00:16:48.13 bitrate=N/A speed=  21x    frame=24433 fps=504 q=-0.0 size=N/A time=00:16:59.05 bitrate=N/A speed=  21x    frame=24723 fps=504 q=-0.0 size=N/A time=00:17:11.15 bitrate=N/A speed=  21x    frame=25010 fps=505 q=-0.0 size=N/A time=00:17:23.12 bitrate=N/A speed=21.1x    frame=25279 fps=505 q=-0.0 size=N/A time=00:17:34.34 bitrate=N/A speed=21.1x    frame=25511 fps=505 q=-0.0 size=N/A time=00:17:44.02 bitrate=N/A speed=  21x    frame=25748 fps=504 q=-0.0 size=N/A time=00:17:53.90 bitrate=N/A speed=  21x    frame=26003 fps=504 q=-0.0 size=N/A time=00:18:04.54 bitrate=N/A speed=  21x    frame=26294 fps=504 q=-0.0 size=N/A time=00:18:16.67 bitrate=N/A speed=  21x    frame=26564 fps=505 q=-0.0 size=N/A time=00:18:27.94 bitrate=N/A speed=21.1x    frame=26833 fps=505 q=-0.0 size=N/A time=00:18:39.15 bitrate=N/A speed=21.1x    frame=27125 fps=505 q=-0.0 size=N/A time=00:18:51.33 bitrate=N/A speed=21.1x    frame=27402 fps=506 q=-0.0 size=N/A time=00:19:02.89 bitrate=N/A speed=21.1x    frame=27688 fps=506 q=-0.0 size=N/A time=00:19:14.82 bitrate=N/A speed=21.1x    frame=27957 fps=506 q=-0.0 size=N/A time=00:19:26.03 bitrate=N/A speed=21.1x    frame=28228 fps=506 q=-0.0 size=N/A time=00:19:37.34 bitrate=N/A speed=21.1x    frame=28494 fps=507 q=-0.0 size=N/A time=00:19:48.43 bitrate=N/A speed=21.1x    frame=28781 fps=507 q=-0.0 size=N/A time=00:20:00.40 bitrate=N/A speed=21.1x    frame=29055 fps=507 q=-0.0 size=N/A time=00:20:11.83 bitrate=N/A speed=21.2x    frame=29302 fps=507 q=-0.0 size=N/A time=00:20:22.13 bitrate=N/A speed=21.1x    frame=29562 fps=507 q=-0.0 size=N/A time=00:20:32.98 bitrate=N/A speed=21.1x    frame=29801 fps=507 q=-0.0 size=N/A time=00:20:42.95 bitrate=N/A speed=21.1x    frame=30055 fps=506 q=-0.0 size=N/A time=00:20:53.54 bitrate=N/A speed=21.1x    frame=30302 fps=506 q=-0.0 size=N/A time=00:21:03.84 bitrate=N/A speed=21.1x    frame=30559 fps=506 q=-0.0 size=N/A time=00:21:14.56 bitrate=N/A speed=21.1x    frame=30772 fps=505 q=-0.0 size=N/A time=00:21:23.44 bitrate=N/A speed=21.1x    frame=31045 fps=506 q=-0.0 size=N/A time=00:21:34.83 bitrate=N/A speed=21.1x    frame=31309 fps=506 q=-0.0 size=N/A time=00:21:45.84 bitrate=N/A speed=21.1x    frame=31572 fps=506 q=-0.0 size=N/A time=00:21:56.81 bitrate=N/A speed=21.1x    frame=31836 fps=506 q=-0.0 size=N/A time=00:22:07.82 bitrate=N/A speed=21.1x    frame=32087 fps=506 q=-0.0 size=N/A time=00:22:18.29 bitrate=N/A speed=21.1x    frame=32366 fps=506 q=-0.0 size=N/A time=00:22:29.93 bitrate=N/A speed=21.1x    frame=32641 fps=506 q=-0.0 size=N/A time=00:22:41.40 bitrate=N/A speed=21.1x    frame=32899 fps=506 q=-0.0 size=N/A time=00:22:52.16 bitrate=N/A speed=21.1x    frame=33098 fps=505 q=-0.0 size=N/A time=00:23:00.46 bitrate=N/A speed=21.1x    frame=33364 fps=505 q=-0.0 size=N/A time=00:23:11.55 bitrate=N/A speed=21.1x    frame=33630 fps=505 q=-0.0 size=N/A time=00:23:22.65 bitrate=N/A speed=21.1x    frame=33899 fps=505 q=-0.0 size=N/A time=00:23:33.87 bitrate=N/A speed=21.1x    [Parsed_psnr_10 @ 0000020d2cc43740] PSNR y:49.056812 u:50.987204 v:50.446939 average:49.540817 min:42.639080 max:inf
[out#0/null @ 0000020d1fb72280] video:14645KiB audio:266572KiB subtitle:0KiB other streams:0KiB global headers:0KiB muxing overhead: unknown
frame=34082 fps=506 q=-0.0 Lsize=N/A time=00:23:41.50 bitrate=N/A speed=21.1x    
